<svg xmlns="http://www.w3.org/2000/svg" width="30" height="30" viewBox="0 0 30 30" fill="none">
  <g clip-path="url(#clip0_1152_216)">
    <path
      d="M15 29.6875C23.1117 29.6875 29.6875 23.1117 29.6875 15C29.6875 6.88831 23.1117 0.3125 15 0.3125C6.88831 0.3125 0.3125 6.88831 0.3125 15C0.3125 23.1117 6.88831 29.6875 15 29.6875Z"
      fill="#F9FAFB" />
    <path d="M8.58594 15.1903L15.0725 18.9561L16.1545 10.9626L8.58594 15.1903Z" fill="#393939" />
    <path d="M15.0724 4.61865L11.999 15.4529L21.5581 15.1903L15.0724 4.61865Z" fill="#343434" />
    <path d="M15.0725 4.61865L8.58594 15.1903L15.0725 12.2922V4.61865Z" fill="#8C8C8C" />
    <path d="M15.0725 25.3773L15.232 20.2505L8.58594 16.3983L15.0725 25.3773Z" fill="#8C8C8C" />
    <path d="M15.0725 20.1633V25.3773L21.5626 16.3983L15.0725 20.1633Z" fill="#3C3C3B" />
    <path d="M15.0725 18.9562L21.5583 15.1903L15.0725 12.2939V18.9562Z" fill="#141414" />
  </g>
  <defs>
    <clipPath id="clip0_1152_216">
      <rect width="30" height="30" fill="white" />
    </clipPath>
  </defs>
</svg>