<svg width="24" height="24" viewBox="0 0 24 24" fill="none" xmlns="http://www.w3.org/2000/svg">
  <path fill-rule="evenodd" clip-rule="evenodd"
    d="M18.5466 4.99721C17.9074 5.0098 17.2149 5.11112 16.4768 5.30891C11.6124 6.61247 6.61236 11.6126 5.3088 16.4769C5.11101 17.215 5.00969 17.9075 4.9971 18.5467L3.87637 19.6675L6.13219 21.9233C7.28824 23.1596 9.26228 23.5926 11.7562 22.9243C16.6205 21.6207 21.6206 16.6207 22.9242 11.7563C23.5963 9.24805 23.1544 7.26563 21.9017 6.11242L19.6666 3.87727L18.5466 4.99721Z"
    fill="url(#paint0_linear_126_200)" />
  <mask id="mask0_126_200" style="mask-type:alpha" maskUnits="userSpaceOnUse" x="2" y="2" width="19" height="19">
    <circle cx="9.11847" cy="9.11847" r="8.61847"
      transform="matrix(0.25885 -0.965918 0.965918 -0.25885 0.603882 22.9399)" fill="url(#paint1_radial_126_200)"
      stroke="#480B0B" />
  </mask>
  <g mask="url(#mask0_126_200)">
    <g filter="url(#filter0_i_126_200)">
      <circle cx="9.11847" cy="9.11847" r="9.11847"
        transform="matrix(0.25885 -0.965918 0.965918 -0.25885 0.603882 22.9399)" fill="url(#paint2_radial_126_200)" />
    </g>
    <circle cx="9.11847" cy="9.11847" r="8.61847"
      transform="matrix(0.25885 -0.965918 0.965918 -0.25885 0.603882 22.9399)" stroke="url(#paint3_linear_126_200)" />
    <path fill-rule="evenodd" clip-rule="evenodd"
      d="M17.0698 10.3522C17.854 7.4262 16.1176 5.68986 13.1916 6.47398C10.2656 7.2581 7.25798 10.2657 6.47386 13.1917C5.68975 16.1177 7.42608 17.8541 10.3521 17.07C13.2781 16.2858 16.2857 13.2782 17.0698 10.3522ZM17.8705 10.1376C18.7732 6.76941 16.7744 4.77066 13.4062 5.67328C10.038 6.57591 6.57579 10.0381 5.67316 13.4063C4.77054 16.7745 6.76929 18.7733 10.1375 17.8707C13.5057 16.968 16.9679 13.5058 17.8705 10.1376Z"
      fill="url(#paint4_linear_126_200)" />
  </g>
  <defs>
    <filter id="filter0_i_126_200" x="2.65112" y="2.65125" width="18.2415" height="18.2415" filterUnits="userSpaceOnUse"
      color-interpolation-filters="sRGB">
      <feFlood flood-opacity="0" result="BackgroundImageFix" />
      <feBlend mode="normal" in="SourceGraphic" in2="BackgroundImageFix" result="shape" />
      <feColorMatrix in="SourceAlpha" type="matrix" values="0 0 0 0 0 0 0 0 0 0 0 0 0 0 0 0 0 0 127 0"
        result="hardAlpha" />
      <feMorphology radius="2" operator="erode" in="SourceAlpha" result="effect1_innerShadow_126_200" />
      <feOffset />
      <feGaussianBlur stdDeviation="1" />
      <feComposite in2="hardAlpha" operator="arithmetic" k2="-1" k3="1" />
      <feColorMatrix type="matrix" values="0 0 0 0 0.475 0 0 0 0 0.110833 0 0 0 0 0.110833 0 0 0 1 0" />
      <feBlend mode="normal" in2="shape" result="effect1_innerShadow_126_200" />
    </filter>
    <linearGradient id="paint0_linear_126_200" x1="9.31359" y1="23.8398" x2="24.0672" y2="9.24922"
      gradientUnits="userSpaceOnUse">
      <stop stop-color="#F57E4B" />
      <stop offset="0.213496" stop-color="#F24C45" />
      <stop offset="0.827351" stop-color="#7B0202" />
      <stop offset="1" stop-color="#6B7875" />
    </linearGradient>
    <radialGradient id="paint1_radial_126_200" cx="0" cy="0" r="1" gradientUnits="userSpaceOnUse"
      gradientTransform="translate(9.11847 9.11847) rotate(90) scale(9.11847)">
      <stop stop-color="#B55454" />
      <stop offset="1" stop-color="#9C2C2C" />
    </radialGradient>
    <radialGradient id="paint2_radial_126_200" cx="0" cy="0" r="1" gradientUnits="userSpaceOnUse"
      gradientTransform="translate(10.8209 4.56787) rotate(97.0992) scale(13.7747 12.0852)">
      <stop stop-color="#DF2323" />
      <stop offset="1" stop-color="#AD1515" />
    </radialGradient>
    <linearGradient id="paint3_linear_126_200" x1="9.11847" y1="2.19987e-07" x2="4.53706" y2="17.8086"
      gradientUnits="userSpaceOnUse">
      <stop stop-color="white" stop-opacity="0.51" />
      <stop offset="1" stop-color="#D1854E" />
    </linearGradient>
    <linearGradient id="paint4_linear_126_200" x1="5.67316" y1="13.4063" x2="16.236" y2="16.237"
      gradientUnits="userSpaceOnUse">
      <stop stop-color="#FFDDCA" />
      <stop offset="1" stop-color="#D7AC8C" />
    </linearGradient>
  </defs>
</svg>