<svg width="140" height="140" viewBox="0 0 140 140" fill="none" xmlns="http://www.w3.org/2000/svg">
<rect width="132" height="132" rx="24" fill="white"/>
<g filter="url(#filter0_di_248_3525)">
<rect width="132" height="132" rx="24" fill="url(#paint0_linear_248_3525)"/>
</g>
<g filter="url(#filter1_iiii_248_3525)">
<rect width="132" height="120" rx="24" fill="url(#paint1_linear_248_3525)"/>
</g>
<g style="mix-blend-mode:color">
<rect width="132" height="133" rx="24" fill="#2D5DDB"/>
</g>
<g style="mix-blend-mode:saturation">
<rect width="132" height="133" rx="24" fill="#FFA63E"/>
</g>
<path d="M20.0922 77V54.604H14.8122V47.608L28.1882 45.848L28.6282 48.488L28.1882 52.888V77H20.0922ZM46.1533 77.44C43.6599 77.44 41.4159 76.9267 39.4213 75.9C37.4559 74.8733 35.9013 73.2013 34.7573 70.884C33.6133 68.5373 33.0413 65.384 33.0413 61.424C33.0413 57.4933 33.6133 54.3693 34.7573 52.052C35.9013 49.7053 37.4559 48.0187 39.4213 46.992C41.4159 45.936 43.6599 45.408 46.1533 45.408C48.6759 45.408 50.9199 45.936 52.8853 46.992C54.8506 48.048 56.4053 49.7493 57.5493 52.096C58.6933 54.4133 59.2653 57.5227 59.2653 61.424C59.2653 65.3253 58.6933 68.4493 57.5493 70.796C56.4053 73.1427 54.8506 74.844 52.8853 75.9C50.9199 76.9267 48.6759 77.44 46.1533 77.44ZM46.1533 69.784C47.7373 69.784 48.9253 69.168 49.7173 67.936C50.5386 66.704 50.9493 64.5333 50.9493 61.424C50.9493 58.3147 50.5386 56.144 49.7173 54.912C48.9253 53.68 47.7373 53.064 46.1533 53.064C44.5986 53.064 43.4106 53.6947 42.5892 54.956C41.7679 56.2173 41.3573 58.3733 41.3573 61.424C41.3573 64.4747 41.7679 66.6307 42.5892 67.892C43.4106 69.1533 44.5986 69.784 46.1533 69.784ZM62.7756 77V70.884C62.7756 70.884 63.0543 70.708 63.6116 70.356C64.169 70.004 64.8876 69.52 65.7676 68.904C66.6476 68.288 67.601 67.5987 68.6276 66.836C69.6543 66.0733 70.6223 65.2813 71.5316 64.46C72.8516 63.316 73.9516 62.304 74.8316 61.424C75.7116 60.5147 76.3716 59.62 76.8116 58.74C77.2516 57.86 77.4716 56.848 77.4716 55.704C77.4716 53.8267 76.225 52.888 73.7316 52.888C72.4996 52.888 71.253 53.0493 69.9916 53.372C68.7596 53.6653 67.6156 54.0173 66.5596 54.428C65.533 54.8387 64.7263 55.1907 64.1396 55.484V48.004C64.9903 47.5347 66.3543 47.0067 68.2316 46.42C70.109 45.8333 72.397 45.54 75.0956 45.54C78.909 45.54 81.6956 46.3467 83.4556 47.96C85.2156 49.544 86.0956 51.9493 86.0956 55.176C86.0956 56.848 85.7876 58.344 85.1716 59.664C84.5556 60.984 83.7636 62.172 82.7956 63.228C81.8276 64.2547 80.7863 65.1493 79.6716 65.912C78.5863 66.6747 77.545 67.32 76.5476 67.848C75.5503 68.3467 74.729 68.7573 74.0836 69.08L74.3036 69.96L86.0956 69.08V77H62.7756ZM104.239 77V72.6H88.3111V66.792L100.895 45.848H112.335L113.215 48.532L112.335 52.932V65.472H118.055V72.16L112.335 72.6V77H104.239ZM97.7271 65.472H104.239V54.56H103.447L97.7271 65.472Z" fill="white"/>
<defs>
<filter id="filter0_di_248_3525" x="0" y="-4" width="140" height="144" filterUnits="userSpaceOnUse" color-interpolation-filters="sRGB">
<feFlood flood-opacity="0" result="BackgroundImageFix"/>
<feColorMatrix in="SourceAlpha" type="matrix" values="0 0 0 0 0 0 0 0 0 0 0 0 0 0 0 0 0 0 127 0" result="hardAlpha"/>
<feOffset dx="4" dy="4"/>
<feGaussianBlur stdDeviation="2"/>
<feComposite in2="hardAlpha" operator="out"/>
<feColorMatrix type="matrix" values="0 0 0 0 0.375 0 0 0 0 0.369185 0 0 0 0 0.367188 0 0 0 0.29 0"/>
<feBlend mode="multiply" in2="BackgroundImageFix" result="effect1_dropShadow_248_3525"/>
<feBlend mode="normal" in="SourceGraphic" in2="effect1_dropShadow_248_3525" result="shape"/>
<feColorMatrix in="SourceAlpha" type="matrix" values="0 0 0 0 0 0 0 0 0 0 0 0 0 0 0 0 0 0 127 0" result="hardAlpha"/>
<feOffset dy="-4"/>
<feGaussianBlur stdDeviation="2"/>
<feComposite in2="hardAlpha" operator="arithmetic" k2="-1" k3="1"/>
<feColorMatrix type="matrix" values="0 0 0 0 0.745833 0 0 0 0 0.189566 0 0 0 0 0.255876 0 0 0 1 0"/>
<feBlend mode="normal" in2="shape" result="effect2_innerShadow_248_3525"/>
</filter>
<filter id="filter1_iiii_248_3525" x="0" y="-8" width="132" height="128" filterUnits="userSpaceOnUse" color-interpolation-filters="sRGB">
<feFlood flood-opacity="0" result="BackgroundImageFix"/>
<feBlend mode="normal" in="SourceGraphic" in2="BackgroundImageFix" result="shape"/>
<feColorMatrix in="SourceAlpha" type="matrix" values="0 0 0 0 0 0 0 0 0 0 0 0 0 0 0 0 0 0 127 0" result="hardAlpha"/>
<feOffset dy="-8"/>
<feGaussianBlur stdDeviation="8"/>
<feComposite in2="hardAlpha" operator="arithmetic" k2="-1" k3="1"/>
<feColorMatrix type="matrix" values="0 0 0 0 0.854167 0 0 0 0 0.131684 0 0 0 0 0.217185 0 0 0 1 0"/>
<feBlend mode="normal" in2="shape" result="effect1_innerShadow_248_3525"/>
<feColorMatrix in="SourceAlpha" type="matrix" values="0 0 0 0 0 0 0 0 0 0 0 0 0 0 0 0 0 0 127 0" result="hardAlpha"/>
<feOffset dy="-1"/>
<feComposite in2="hardAlpha" operator="arithmetic" k2="-1" k3="1"/>
<feColorMatrix type="matrix" values="0 0 0 0 0.95 0 0 0 0 0.372083 0 0 0 0 0.440476 0 0 0 1 0"/>
<feBlend mode="normal" in2="effect1_innerShadow_248_3525" result="effect2_innerShadow_248_3525"/>
<feColorMatrix in="SourceAlpha" type="matrix" values="0 0 0 0 0 0 0 0 0 0 0 0 0 0 0 0 0 0 127 0" result="hardAlpha"/>
<feOffset dx="1" dy="0.5"/>
<feComposite in2="hardAlpha" operator="arithmetic" k2="-1" k3="1"/>
<feColorMatrix type="matrix" values="0 0 0 0 0.983333 0 0 0 0 0.606389 0 0 0 0 0.650476 0 0 0 1 0"/>
<feBlend mode="normal" in2="effect2_innerShadow_248_3525" result="effect3_innerShadow_248_3525"/>
<feColorMatrix in="SourceAlpha" type="matrix" values="0 0 0 0 0 0 0 0 0 0 0 0 0 0 0 0 0 0 127 0" result="hardAlpha"/>
<feOffset/>
<feGaussianBlur stdDeviation="4"/>
<feComposite in2="hardAlpha" operator="arithmetic" k2="-1" k3="1"/>
<feColorMatrix type="matrix" values="0 0 0 0 0.92549 0 0 0 0 0.262745 0 0 0 0 0.341176 0 0 0 1 0"/>
<feBlend mode="normal" in2="effect3_innerShadow_248_3525" result="effect4_innerShadow_248_3525"/>
</filter>
<linearGradient id="paint0_linear_248_3525" x1="7.5" y1="132" x2="132" y2="132" gradientUnits="userSpaceOnUse">
<stop offset="0.0205438" stop-color="#B32133"/>
<stop offset="0.997794" stop-color="#B41A2C"/>
</linearGradient>
<linearGradient id="paint1_linear_248_3525" x1="9.5" y1="-5.51591e-07" x2="118" y2="120" gradientUnits="userSpaceOnUse">
<stop stop-color="#F5455A"/>
<stop offset="1" stop-color="#E94256"/>
</linearGradient>
</defs>
</svg>
