<svg width="140" height="140" viewBox="0 0 140 140" fill="none" xmlns="http://www.w3.org/2000/svg">
<rect width="132" height="132" rx="24" fill="white"/>
<g filter="url(#filter0_di_10_170)">
<rect width="132" height="132" rx="24" fill="url(#paint0_linear_10_170)"/>
</g>
<g filter="url(#filter1_iiii_10_170)">
<rect width="132" height="120" rx="24" fill="url(#paint1_linear_10_170)"/>
</g>
<g style="mix-blend-mode:color">
<rect width="132" height="133" rx="24" fill="#DB2D2D"/>
</g>
<path d="M35.9105 77V54.604H30.6305V47.608L44.0065 45.848L44.4465 48.488L44.0065 52.888V77H35.9105ZM48.8596 77V70.884C48.8596 70.884 49.1383 70.708 49.6956 70.356C50.2529 70.004 50.9716 69.52 51.8516 68.904C52.7316 68.288 53.6849 67.5987 54.7116 66.836C55.7383 66.0733 56.7063 65.2813 57.6156 64.46C58.9356 63.316 60.0356 62.304 60.9156 61.424C61.7956 60.5147 62.4556 59.62 62.8956 58.74C63.3356 57.86 63.5556 56.848 63.5556 55.704C63.5556 53.8267 62.3089 52.888 59.8156 52.888C58.5836 52.888 57.3369 53.0493 56.0756 53.372C54.8436 53.6653 53.6996 54.0173 52.6436 54.428C51.6169 54.8387 50.8103 55.1907 50.2236 55.484V48.004C51.0743 47.5347 52.4383 47.0067 54.3156 46.42C56.1929 45.8333 58.4809 45.54 61.1796 45.54C64.9929 45.54 67.7796 46.3467 69.5396 47.96C71.2996 49.544 72.1796 51.9493 72.1796 55.176C72.1796 56.848 71.8716 58.344 71.2556 59.664C70.6396 60.984 69.8476 62.172 68.8796 63.228C67.9116 64.2547 66.8703 65.1493 65.7556 65.912C64.6703 66.6747 63.6289 67.32 62.6316 67.848C61.6343 68.3467 60.8129 68.7573 60.1676 69.08L60.3876 69.96L72.1796 69.08V77H48.8596ZM88.9151 77.44C87.3017 77.44 85.7177 77.2933 84.1631 77C82.6084 76.6773 81.1857 76.164 79.8951 75.46C78.6337 74.7267 77.6217 73.744 76.8591 72.512C76.0964 71.28 75.7151 69.74 75.7151 67.892C75.7151 66.0147 76.1111 64.504 76.9031 63.36C77.6951 62.216 78.7364 61.336 80.0271 60.72C78.9711 59.9573 78.2084 59.0187 77.7391 57.904C77.2697 56.76 77.0351 55.484 77.0351 54.076C77.0351 52.3747 77.4897 50.8787 78.3991 49.588C79.3377 48.2973 80.6871 47.2853 82.4471 46.552C84.2071 45.7893 86.3337 45.408 88.8271 45.408C92.5817 45.408 95.4857 46.156 97.5391 47.652C99.5924 49.148 100.619 51.2893 100.619 54.076C100.619 55.6307 100.399 56.9507 99.9591 58.036C99.5191 59.092 98.8737 59.9573 98.0231 60.632C99.2551 61.248 100.208 62.1427 100.883 63.316C101.587 64.46 101.939 65.9853 101.939 67.892C101.939 69.74 101.572 71.28 100.839 72.512C100.106 73.744 99.1084 74.7267 97.8471 75.46C96.6151 76.164 95.2217 76.6773 93.6671 77C92.1124 77.2933 90.5284 77.44 88.9151 77.44ZM88.9151 58.256C90.0004 58.256 90.8364 57.9773 91.4231 57.42C92.0097 56.8333 92.3031 56.1733 92.3031 55.44C92.3031 54.6773 92.0097 54.0613 91.4231 53.592C90.8364 53.1227 90.0004 52.888 88.9151 52.888C87.8591 52.888 86.9937 53.108 86.3191 53.548C85.6737 53.9587 85.3511 54.5893 85.3511 55.44C85.3511 56.2613 85.6737 56.936 86.3191 57.464C86.9937 57.992 87.8591 58.256 88.9151 58.256ZM88.9151 69.96C90.4991 69.96 91.6724 69.7107 92.4351 69.212C93.2271 68.684 93.6231 68.068 93.6231 67.364C93.6231 66.484 93.2564 65.7653 92.5231 65.208C91.8191 64.6213 90.8511 64.2107 89.6191 63.976C88.4164 63.712 87.0671 63.6093 85.5711 63.668C85.2191 64.0493 84.9111 64.5187 84.6471 65.076C84.4124 65.6333 84.2951 66.22 84.2951 66.836C84.2951 67.7453 84.6617 68.4933 85.3951 69.08C86.1577 69.6667 87.3311 69.96 88.9151 69.96Z" fill="white"/>
<defs>
<filter id="filter0_di_10_170" x="0" y="-4" width="140" height="144" filterUnits="userSpaceOnUse" color-interpolation-filters="sRGB">
<feFlood flood-opacity="0" result="BackgroundImageFix"/>
<feColorMatrix in="SourceAlpha" type="matrix" values="0 0 0 0 0 0 0 0 0 0 0 0 0 0 0 0 0 0 127 0" result="hardAlpha"/>
<feOffset dx="4" dy="4"/>
<feGaussianBlur stdDeviation="2"/>
<feComposite in2="hardAlpha" operator="out"/>
<feColorMatrix type="matrix" values="0 0 0 0 0.375 0 0 0 0 0.369185 0 0 0 0 0.367188 0 0 0 0.29 0"/>
<feBlend mode="multiply" in2="BackgroundImageFix" result="effect1_dropShadow_10_170"/>
<feBlend mode="normal" in="SourceGraphic" in2="effect1_dropShadow_10_170" result="shape"/>
<feColorMatrix in="SourceAlpha" type="matrix" values="0 0 0 0 0 0 0 0 0 0 0 0 0 0 0 0 0 0 127 0" result="hardAlpha"/>
<feOffset dy="-4"/>
<feGaussianBlur stdDeviation="2"/>
<feComposite in2="hardAlpha" operator="arithmetic" k2="-1" k3="1"/>
<feColorMatrix type="matrix" values="0 0 0 0 0.745833 0 0 0 0 0.189566 0 0 0 0 0.255876 0 0 0 1 0"/>
<feBlend mode="normal" in2="shape" result="effect2_innerShadow_10_170"/>
</filter>
<filter id="filter1_iiii_10_170" x="0" y="-8" width="132" height="128" filterUnits="userSpaceOnUse" color-interpolation-filters="sRGB">
<feFlood flood-opacity="0" result="BackgroundImageFix"/>
<feBlend mode="normal" in="SourceGraphic" in2="BackgroundImageFix" result="shape"/>
<feColorMatrix in="SourceAlpha" type="matrix" values="0 0 0 0 0 0 0 0 0 0 0 0 0 0 0 0 0 0 127 0" result="hardAlpha"/>
<feOffset dy="-8"/>
<feGaussianBlur stdDeviation="8"/>
<feComposite in2="hardAlpha" operator="arithmetic" k2="-1" k3="1"/>
<feColorMatrix type="matrix" values="0 0 0 0 0.854167 0 0 0 0 0.131684 0 0 0 0 0.217185 0 0 0 1 0"/>
<feBlend mode="normal" in2="shape" result="effect1_innerShadow_10_170"/>
<feColorMatrix in="SourceAlpha" type="matrix" values="0 0 0 0 0 0 0 0 0 0 0 0 0 0 0 0 0 0 127 0" result="hardAlpha"/>
<feOffset dy="-1"/>
<feComposite in2="hardAlpha" operator="arithmetic" k2="-1" k3="1"/>
<feColorMatrix type="matrix" values="0 0 0 0 0.95 0 0 0 0 0.372083 0 0 0 0 0.440476 0 0 0 1 0"/>
<feBlend mode="normal" in2="effect1_innerShadow_10_170" result="effect2_innerShadow_10_170"/>
<feColorMatrix in="SourceAlpha" type="matrix" values="0 0 0 0 0 0 0 0 0 0 0 0 0 0 0 0 0 0 127 0" result="hardAlpha"/>
<feOffset dx="1" dy="0.5"/>
<feComposite in2="hardAlpha" operator="arithmetic" k2="-1" k3="1"/>
<feColorMatrix type="matrix" values="0 0 0 0 0.983333 0 0 0 0 0.606389 0 0 0 0 0.650476 0 0 0 1 0"/>
<feBlend mode="normal" in2="effect2_innerShadow_10_170" result="effect3_innerShadow_10_170"/>
<feColorMatrix in="SourceAlpha" type="matrix" values="0 0 0 0 0 0 0 0 0 0 0 0 0 0 0 0 0 0 127 0" result="hardAlpha"/>
<feOffset/>
<feGaussianBlur stdDeviation="4"/>
<feComposite in2="hardAlpha" operator="arithmetic" k2="-1" k3="1"/>
<feColorMatrix type="matrix" values="0 0 0 0 0.92549 0 0 0 0 0.262745 0 0 0 0 0.341176 0 0 0 1 0"/>
<feBlend mode="normal" in2="effect3_innerShadow_10_170" result="effect4_innerShadow_10_170"/>
</filter>
<linearGradient id="paint0_linear_10_170" x1="7.5" y1="132" x2="132" y2="132" gradientUnits="userSpaceOnUse">
<stop offset="0.0205438" stop-color="#B32133"/>
<stop offset="0.997794" stop-color="#B41A2C"/>
</linearGradient>
<linearGradient id="paint1_linear_10_170" x1="9.5" y1="-5.51591e-07" x2="118" y2="120" gradientUnits="userSpaceOnUse">
<stop stop-color="#F5455A"/>
<stop offset="1" stop-color="#E94256"/>
</linearGradient>
</defs>
</svg>
