<svg width="140" height="140" viewBox="0 0 140 140" fill="none" xmlns="http://www.w3.org/2000/svg">
<rect width="132" height="132" rx="24" fill="white"/>
<g filter="url(#filter0_di_10_152)">
<rect width="132" height="132" rx="24" fill="url(#paint0_linear_10_152)"/>
</g>
<g filter="url(#filter1_iiii_10_152)">
<rect width="132" height="120" rx="24" fill="url(#paint1_linear_10_152)"/>
</g>
<g style="mix-blend-mode:color">
<rect width="132" height="132" rx="24" fill="#FF8A00"/>
</g>
<g style="mix-blend-mode:saturation">
<rect width="132" height="132" rx="24" fill="#FFAE4F"/>
</g>
<g style="mix-blend-mode:soft-light">
<rect width="132" height="132" rx="24" fill="white" fill-opacity="0.3"/>
</g>
<path d="M48.602 77V54.604H43.322V47.608L56.698 45.848L57.138 48.488L56.698 52.888V77H48.602ZM75.719 77.44C72.8737 77.44 70.3803 76.912 68.239 75.856C66.127 74.8 64.4843 73.1573 63.311 70.928C62.1377 68.6987 61.551 65.8387 61.551 62.348C61.551 59.092 61.9617 56.3787 62.783 54.208C63.6337 52.008 64.763 50.2773 66.171 49.016C67.6083 47.7253 69.207 46.8013 70.967 46.244C72.7563 45.6867 74.5897 45.408 76.467 45.408C77.963 45.408 79.415 45.5253 80.823 45.76C82.2603 45.9947 83.3017 46.2587 83.947 46.552L87.951 50.116L83.991 56.496L76.907 52.844C74.971 52.844 73.343 53.4013 72.023 54.516C70.7323 55.6013 70.087 57.156 70.087 59.18L76.599 57.86C78.6817 57.86 80.603 58.1533 82.363 58.74C84.1523 59.2973 85.575 60.28 86.631 61.688C87.7163 63.0667 88.259 64.988 88.259 67.452C88.259 70.4733 87.203 72.8933 85.091 74.712C83.0083 76.5307 79.8843 77.44 75.719 77.44ZM75.675 69.872C77.0243 69.872 78.0657 69.6373 78.799 69.168C79.5617 68.6693 79.943 68.0093 79.943 67.188C79.943 66.3373 79.6057 65.56 78.931 64.856C78.2564 64.152 77.2003 63.8 75.763 63.8C74.5017 63.8 73.431 64.0787 72.551 64.636C71.671 65.164 71.0697 65.6187 70.747 66C70.9817 67.0853 71.495 68.0093 72.287 68.772C73.1083 69.5053 74.2377 69.872 75.675 69.872Z" fill="white"/>
<defs>
<filter id="filter0_di_10_152" x="0" y="-4" width="140" height="144" filterUnits="userSpaceOnUse" color-interpolation-filters="sRGB">
<feFlood flood-opacity="0" result="BackgroundImageFix"/>
<feColorMatrix in="SourceAlpha" type="matrix" values="0 0 0 0 0 0 0 0 0 0 0 0 0 0 0 0 0 0 127 0" result="hardAlpha"/>
<feOffset dx="4" dy="4"/>
<feGaussianBlur stdDeviation="2"/>
<feComposite in2="hardAlpha" operator="out"/>
<feColorMatrix type="matrix" values="0 0 0 0 0.375 0 0 0 0 0.369185 0 0 0 0 0.367188 0 0 0 0.29 0"/>
<feBlend mode="multiply" in2="BackgroundImageFix" result="effect1_dropShadow_10_152"/>
<feBlend mode="normal" in="SourceGraphic" in2="effect1_dropShadow_10_152" result="shape"/>
<feColorMatrix in="SourceAlpha" type="matrix" values="0 0 0 0 0 0 0 0 0 0 0 0 0 0 0 0 0 0 127 0" result="hardAlpha"/>
<feOffset dy="-4"/>
<feGaussianBlur stdDeviation="2"/>
<feComposite in2="hardAlpha" operator="arithmetic" k2="-1" k3="1"/>
<feColorMatrix type="matrix" values="0 0 0 0 0.745833 0 0 0 0 0.189566 0 0 0 0 0.255876 0 0 0 1 0"/>
<feBlend mode="normal" in2="shape" result="effect2_innerShadow_10_152"/>
</filter>
<filter id="filter1_iiii_10_152" x="0" y="-8" width="132" height="128" filterUnits="userSpaceOnUse" color-interpolation-filters="sRGB">
<feFlood flood-opacity="0" result="BackgroundImageFix"/>
<feBlend mode="normal" in="SourceGraphic" in2="BackgroundImageFix" result="shape"/>
<feColorMatrix in="SourceAlpha" type="matrix" values="0 0 0 0 0 0 0 0 0 0 0 0 0 0 0 0 0 0 127 0" result="hardAlpha"/>
<feOffset dy="-8"/>
<feGaussianBlur stdDeviation="8"/>
<feComposite in2="hardAlpha" operator="arithmetic" k2="-1" k3="1"/>
<feColorMatrix type="matrix" values="0 0 0 0 0.854167 0 0 0 0 0.131684 0 0 0 0 0.217185 0 0 0 1 0"/>
<feBlend mode="normal" in2="shape" result="effect1_innerShadow_10_152"/>
<feColorMatrix in="SourceAlpha" type="matrix" values="0 0 0 0 0 0 0 0 0 0 0 0 0 0 0 0 0 0 127 0" result="hardAlpha"/>
<feOffset dy="-1"/>
<feComposite in2="hardAlpha" operator="arithmetic" k2="-1" k3="1"/>
<feColorMatrix type="matrix" values="0 0 0 0 0.95 0 0 0 0 0.372083 0 0 0 0 0.440476 0 0 0 1 0"/>
<feBlend mode="normal" in2="effect1_innerShadow_10_152" result="effect2_innerShadow_10_152"/>
<feColorMatrix in="SourceAlpha" type="matrix" values="0 0 0 0 0 0 0 0 0 0 0 0 0 0 0 0 0 0 127 0" result="hardAlpha"/>
<feOffset dx="1" dy="0.5"/>
<feComposite in2="hardAlpha" operator="arithmetic" k2="-1" k3="1"/>
<feColorMatrix type="matrix" values="0 0 0 0 0.983333 0 0 0 0 0.606389 0 0 0 0 0.650476 0 0 0 1 0"/>
<feBlend mode="normal" in2="effect2_innerShadow_10_152" result="effect3_innerShadow_10_152"/>
<feColorMatrix in="SourceAlpha" type="matrix" values="0 0 0 0 0 0 0 0 0 0 0 0 0 0 0 0 0 0 127 0" result="hardAlpha"/>
<feOffset/>
<feGaussianBlur stdDeviation="4"/>
<feComposite in2="hardAlpha" operator="arithmetic" k2="-1" k3="1"/>
<feColorMatrix type="matrix" values="0 0 0 0 0.92549 0 0 0 0 0.262745 0 0 0 0 0.341176 0 0 0 1 0"/>
<feBlend mode="normal" in2="effect3_innerShadow_10_152" result="effect4_innerShadow_10_152"/>
</filter>
<linearGradient id="paint0_linear_10_152" x1="7.5" y1="132" x2="132" y2="132" gradientUnits="userSpaceOnUse">
<stop offset="0.0205438" stop-color="#B32133"/>
<stop offset="0.997794" stop-color="#B41A2C"/>
</linearGradient>
<linearGradient id="paint1_linear_10_152" x1="9.5" y1="-5.51591e-07" x2="118" y2="120" gradientUnits="userSpaceOnUse">
<stop stop-color="#F5455A"/>
<stop offset="1" stop-color="#E94256"/>
</linearGradient>
</defs>
</svg>
