<svg width="140" height="140" viewBox="0 0 140 140" fill="none" xmlns="http://www.w3.org/2000/svg">
  <rect width="132" height="132" rx="24" fill="white" />
  <g filter="url(#filter0_di_10_141)">
    <rect width="132" height="132" rx="24" fill="url(#paint0_linear_10_141)" />
  </g>
  <g filter="url(#filter1_iiii_10_141)">
    <rect width="132" height="120" rx="24" fill="url(#paint1_linear_10_141)" />
  </g>
  <g style="mix-blend-mode:color">
    <rect width="132" height="132" rx="24" fill="#FF8A00" />
  </g>
  <g style="mix-blend-mode:saturation">
    <rect width="132" height="132" rx="24" fill="#FFCA8B" />
  </g>
  <g style="mix-blend-mode:soft-light">
    <rect width="132" height="132" rx="24" fill="white" fill-opacity="0.4" />
  </g>
  <path
    d="M66.0928 77.44C64.4795 77.44 62.8955 77.2933 61.3408 77C59.7861 76.6773 58.3635 76.164 57.0728 75.46C55.8115 74.7267 54.7995 73.744 54.0368 72.512C53.2741 71.28 52.8928 69.74 52.8928 67.892C52.8928 66.0147 53.2888 64.504 54.0808 63.36C54.8728 62.216 55.9141 61.336 57.2048 60.72C56.1488 59.9573 55.3861 59.0187 54.9168 57.904C54.4475 56.76 54.2128 55.484 54.2128 54.076C54.2128 52.3747 54.6675 50.8787 55.5768 49.588C56.5155 48.2973 57.8648 47.2853 59.6248 46.552C61.3848 45.7893 63.5115 45.408 66.0048 45.408C69.7595 45.408 72.6635 46.156 74.7168 47.652C76.7701 49.148 77.7968 51.2893 77.7968 54.076C77.7968 55.6307 77.5768 56.9507 77.1368 58.036C76.6968 59.092 76.0515 59.9573 75.2008 60.632C76.4328 61.248 77.3861 62.1427 78.0608 63.316C78.7648 64.46 79.1168 65.9853 79.1168 67.892C79.1168 69.74 78.7501 71.28 78.0168 72.512C77.2835 73.744 76.2861 74.7267 75.0248 75.46C73.7928 76.164 72.3995 76.6773 70.8448 77C69.2901 77.2933 67.7061 77.44 66.0928 77.44ZM66.0928 58.256C67.1781 58.256 68.0141 57.9773 68.6008 57.42C69.1875 56.8333 69.4808 56.1733 69.4808 55.44C69.4808 54.6773 69.1875 54.0613 68.6008 53.592C68.0141 53.1227 67.1781 52.888 66.0928 52.888C65.0368 52.888 64.1715 53.108 63.4968 53.548C62.8515 53.9587 62.5288 54.5893 62.5288 55.44C62.5288 56.2613 62.8515 56.936 63.4968 57.464C64.1715 57.992 65.0368 58.256 66.0928 58.256ZM66.0928 69.96C67.6768 69.96 68.8501 69.7107 69.6128 69.212C70.4048 68.684 70.8008 68.068 70.8008 67.364C70.8008 66.484 70.4341 65.7653 69.7008 65.208C68.9968 64.6213 68.0288 64.2107 66.7968 63.976C65.5941 63.712 64.2448 63.6093 62.7488 63.668C62.3968 64.0493 62.0888 64.5187 61.8248 65.076C61.5901 65.6333 61.4728 66.22 61.4728 66.836C61.4728 67.7453 61.8395 68.4933 62.5728 69.08C63.3355 69.6667 64.5088 69.96 66.0928 69.96Z"
    fill="white" />
  <defs>
    <filter id="filter0_di_10_141" x="0" y="-4" width="140" height="144" filterUnits="userSpaceOnUse"
      color-interpolation-filters="sRGB">
      <feFlood flood-opacity="0" result="BackgroundImageFix" />
      <feColorMatrix in="SourceAlpha" type="matrix" values="0 0 0 0 0 0 0 0 0 0 0 0 0 0 0 0 0 0 127 0"
        result="hardAlpha" />
      <feOffset dx="4" dy="4" />
      <feGaussianBlur stdDeviation="2" />
      <feComposite in2="hardAlpha" operator="out" />
      <feColorMatrix type="matrix" values="0 0 0 0 0.375 0 0 0 0 0.369185 0 0 0 0 0.367188 0 0 0 0.29 0" />
      <feBlend mode="multiply" in2="BackgroundImageFix" result="effect1_dropShadow_10_141" />
      <feBlend mode="normal" in="SourceGraphic" in2="effect1_dropShadow_10_141" result="shape" />
      <feColorMatrix in="SourceAlpha" type="matrix" values="0 0 0 0 0 0 0 0 0 0 0 0 0 0 0 0 0 0 127 0"
        result="hardAlpha" />
      <feOffset dy="-4" />
      <feGaussianBlur stdDeviation="2" />
      <feComposite in2="hardAlpha" operator="arithmetic" k2="-1" k3="1" />
      <feColorMatrix type="matrix" values="0 0 0 0 0.745833 0 0 0 0 0.189566 0 0 0 0 0.255876 0 0 0 1 0" />
      <feBlend mode="normal" in2="shape" result="effect2_innerShadow_10_141" />
    </filter>
    <filter id="filter1_iiii_10_141" x="0" y="-8" width="132" height="128" filterUnits="userSpaceOnUse"
      color-interpolation-filters="sRGB">
      <feFlood flood-opacity="0" result="BackgroundImageFix" />
      <feBlend mode="normal" in="SourceGraphic" in2="BackgroundImageFix" result="shape" />
      <feColorMatrix in="SourceAlpha" type="matrix" values="0 0 0 0 0 0 0 0 0 0 0 0 0 0 0 0 0 0 127 0"
        result="hardAlpha" />
      <feOffset dy="-8" />
      <feGaussianBlur stdDeviation="8" />
      <feComposite in2="hardAlpha" operator="arithmetic" k2="-1" k3="1" />
      <feColorMatrix type="matrix" values="0 0 0 0 0.854167 0 0 0 0 0.131684 0 0 0 0 0.217185 0 0 0 1 0" />
      <feBlend mode="normal" in2="shape" result="effect1_innerShadow_10_141" />
      <feColorMatrix in="SourceAlpha" type="matrix" values="0 0 0 0 0 0 0 0 0 0 0 0 0 0 0 0 0 0 127 0"
        result="hardAlpha" />
      <feOffset dy="-1" />
      <feComposite in2="hardAlpha" operator="arithmetic" k2="-1" k3="1" />
      <feColorMatrix type="matrix" values="0 0 0 0 0.95 0 0 0 0 0.372083 0 0 0 0 0.440476 0 0 0 1 0" />
      <feBlend mode="normal" in2="effect1_innerShadow_10_141" result="effect2_innerShadow_10_141" />
      <feColorMatrix in="SourceAlpha" type="matrix" values="0 0 0 0 0 0 0 0 0 0 0 0 0 0 0 0 0 0 127 0"
        result="hardAlpha" />
      <feOffset dx="1" dy="0.5" />
      <feComposite in2="hardAlpha" operator="arithmetic" k2="-1" k3="1" />
      <feColorMatrix type="matrix" values="0 0 0 0 0.983333 0 0 0 0 0.606389 0 0 0 0 0.650476 0 0 0 1 0" />
      <feBlend mode="normal" in2="effect2_innerShadow_10_141" result="effect3_innerShadow_10_141" />
      <feColorMatrix in="SourceAlpha" type="matrix" values="0 0 0 0 0 0 0 0 0 0 0 0 0 0 0 0 0 0 127 0"
        result="hardAlpha" />
      <feOffset />
      <feGaussianBlur stdDeviation="4" />
      <feComposite in2="hardAlpha" operator="arithmetic" k2="-1" k3="1" />
      <feColorMatrix type="matrix" values="0 0 0 0 0.92549 0 0 0 0 0.262745 0 0 0 0 0.341176 0 0 0 1 0" />
      <feBlend mode="normal" in2="effect3_innerShadow_10_141" result="effect4_innerShadow_10_141" />
    </filter>
    <linearGradient id="paint0_linear_10_141" x1="7.5" y1="132" x2="132" y2="132" gradientUnits="userSpaceOnUse">
      <stop offset="0.0205438" stop-color="#B32133" />
      <stop offset="0.997794" stop-color="#B41A2C" />
    </linearGradient>
    <linearGradient id="paint1_linear_10_141" x1="9.5" y1="-5.51591e-07" x2="118" y2="120"
      gradientUnits="userSpaceOnUse">
      <stop stop-color="#F5455A" />
      <stop offset="1" stop-color="#E94256" />
    </linearGradient>
  </defs>
</svg>