<svg width="256" height="255" viewBox="0 0 256 255" fill="none" xmlns="http://www.w3.org/2000/svg">
  <g clip-path="url(#clip0_1436_93)">
    <path
      d="M256 128C256 198.692 198.694 256 128 256C57.3069 256 0 198.692 0 128C0 57.3056 57.3069 0 128 0C198.694 0 256 57.3056 256 128Z"
      fill="#111111" />
    <g clip-path="url(#clip1_1436_93)">
      <path fill-rule="evenodd" clip-rule="evenodd"
        d="M79.9602 63.4267L129.408 34.9091L178.856 63.4267L160.677 73.9619L129.408 55.9795L98.1396 73.9619L79.9602 63.4267ZM178.856 99.3918L160.677 88.8562L129.408 106.839L98.1396 88.8562L79.9602 99.3918V120.462L111.229 138.444V174.409L129.408 184.944L147.588 174.409V138.444L178.856 120.462V99.3918ZM178.856 135.357V156.427L160.677 166.962V145.892L178.856 135.357ZM191.763 163.874L160.495 181.857V202.927L209.943 174.409V117.374L191.763 127.909V163.874ZM191.764 91.9445L173.584 81.4092L191.764 70.874L209.943 81.4092V102.48L191.764 113.015V91.9445ZM129.408 200.021L111.229 189.486V210.556L129.408 221.091L147.588 210.556V189.486L129.408 200.021ZM98.1396 166.962L79.9602 156.427V135.357L98.1396 145.892V166.962ZM111.229 81.4092L129.408 91.9445L147.588 81.4092L129.408 70.874L111.229 81.4092ZM85.2321 81.4092L67.0526 91.9445V113.015L48.8732 102.48V81.4092L67.0526 70.874L85.2321 81.4092ZM67.0526 127.909L48.8732 117.374V174.409L98.3211 202.927V181.857L67.0526 163.874V127.909Z"
        fill="#F0B90B" />
    </g>
  </g>
  <defs>
    <clipPath id="clip0_1436_93">
      <rect width="256" height="254.756" fill="white" />
    </clipPath>
    <clipPath id="clip1_1436_93">
      <rect width="186.182" height="186.182" fill="white" transform="translate(34.9091 34.9091)" />
    </clipPath>
  </defs>
</svg>