<svg xmlns="http://www.w3.org/2000/svg" width="24" height="24" viewBox="0 0 24 24" fill="none">
  <g clip-path="url(#clip0_917_661)">
    <path
      d="M24 12C24 18.6274 18.6276 24 12 24C5.37252 24 0 18.6274 0 12C0 5.3724 5.37252 0 12 0C18.6276 0 24 5.3724 24 12Z"
      fill="#7950DD" />
    <path
      d="M16.3002 9.24156C16.0084 9.06166 15.629 9.06166 15.308 9.24156L13.0315 10.6207L11.4847 11.5202L9.20833 12.8994C8.91649 13.0793 8.53708 13.0793 8.21604 12.8994L6.40659 11.8201C6.11474 11.6402 5.91044 11.3104 5.91044 10.9506V8.8218C5.91044 8.462 6.08555 8.1322 6.40659 7.9523L8.18686 6.9029C8.47871 6.72301 8.85809 6.72301 9.17915 6.9029L10.9594 7.9523C11.2513 8.1322 11.4556 8.462 11.4556 8.8218V10.201L13.0023 9.27154V7.89233C13.0023 7.53254 12.8273 7.20273 12.5062 7.02284L9.20833 5.04398C8.91649 4.86408 8.53708 4.86408 8.21604 5.04398L4.85979 7.02284C4.53876 7.20273 4.36365 7.53254 4.36365 7.89233V11.88C4.36365 12.2398 4.53876 12.5696 4.85979 12.7495L8.21604 14.7284C8.5079 14.9083 8.88732 14.9083 9.20833 14.7284L11.4847 13.3791L13.0315 12.4497L15.308 11.1005C15.5998 10.9206 15.9792 10.9206 16.3002 11.1005L18.0805 12.1499C18.3724 12.3298 18.5767 12.6596 18.5767 13.0194V15.1481C18.5767 15.5079 18.4016 15.8377 18.0805 16.0176L16.3002 17.097C16.0084 17.2769 15.629 17.2769 15.308 17.097L13.5277 16.0476C13.2358 15.8677 13.0315 15.5379 13.0315 15.1781V13.7989L11.4847 14.7284V16.1076C11.4847 16.4674 11.6598 16.7972 11.9809 16.9771L15.3371 18.956C15.629 19.1358 16.0084 19.1358 16.3294 18.956L19.6857 16.9771C19.9775 16.7972 20.1818 16.4674 20.1818 16.1076V12.1199C20.1818 11.7601 20.0067 11.4303 19.6857 11.2504L16.3002 9.24156Z"
      fill="white" />
  </g>
  <defs>
    <clipPath id="clip0_917_661">
      <rect width="24" height="24" fill="white" />
    </clipPath>
  </defs>
</svg>