<svg xmlns="http://www.w3.org/2000/svg" width="128" height="128" viewBox="0 0 128 128" fill="none">
  <path
    d="M64.0001 10.6666C93.4561 10.6666 117.333 34.544 117.333 64C117.333 93.456 93.4561 117.333 64.0001 117.333C34.5441 117.333 10.6667 93.456 10.6667 64C10.6667 34.544 34.5441 10.6666 64.0001 10.6666ZM64.0001 26.6666C54.0987 26.6666 44.6028 30.5999 37.6014 37.6013C30.6001 44.6027 26.6667 54.0985 26.6667 64C26.6667 73.9014 30.6001 83.3973 37.6014 90.3986C44.6028 97.4 54.0987 101.333 64.0001 101.333C73.9015 101.333 83.3974 97.4 90.3987 90.3986C97.4001 83.3973 101.333 73.9014 101.333 64C101.333 54.0985 97.4001 44.6027 90.3987 37.6013C83.3974 30.5999 73.9015 26.6666 64.0001 26.6666Z"
    fill="#572B13" fill-opacity="0.1" />
  <path
    d="M101.712 101.712C122.539 80.8853 122.539 47.1146 101.712 26.288C80.8853 5.4613 47.1146 5.4613 26.2879 26.288C24.8307 27.7968 24.0243 29.8176 24.0425 31.9152C24.0608 34.0128 24.9021 36.0193 26.3854 37.5025C27.8686 38.9858 29.8751 39.8271 31.9727 39.8454C34.0703 39.8636 36.0911 39.0572 37.5999 37.6C41.0668 34.1331 45.1826 31.383 49.7124 29.5067C54.2421 27.6304 59.097 26.6647 63.9999 26.6647C68.9029 26.6647 73.7578 27.6304 78.2875 29.5067C82.8172 31.383 86.933 34.1331 90.3999 37.6C93.8668 41.0669 96.6169 45.1827 98.4932 49.7124C100.369 54.2421 101.335 59.097 101.335 64C101.335 68.9029 100.369 73.7578 98.4932 78.2875C96.6169 82.8173 93.8668 86.9331 90.3999 90.4C88.9427 91.9088 88.1363 93.9296 88.1545 96.0272C88.1728 98.1247 89.0141 100.131 90.4974 101.615C91.9807 103.098 93.9872 103.939 96.0847 103.957C98.1823 103.976 100.203 103.169 101.712 101.712Z"
    fill="#572B13" />
</svg>