<svg width="87" height="74" viewBox="0 0 87 74" fill="none" xmlns="http://www.w3.org/2000/svg">
  <g filter="url(#filter0_i_334_3941)">
    <path d="M83 28C83 14.7452 72.2548 4 59 4H4V70H59C72.2548 70 83 59.2548 83 46V28Z"
      fill="url(#paint0_linear_334_3941)" />
  </g>
  <path
    d="M24.3113 58V49.248L23.9913 47.632L24.3113 46.672H28.1513C28.9299 46.672 29.6286 46.7947 30.2473 47.04C30.8766 47.2747 31.3726 47.68 31.7353 48.256C32.1086 48.8213 32.2953 49.6053 32.2953 50.608C32.2953 51.5573 32.1139 52.3147 31.7513 52.88C31.3993 53.4453 30.9086 53.8667 30.2793 54.144L30.7433 54.56L32.1673 56.224L33.0793 57.04V58H30.1193L27.8793 54.592H26.5513V55.424L26.7113 57.024L26.5513 58H24.3113ZM26.5513 52.56H28.1193C28.8233 52.56 29.3033 52.3787 29.5593 52.016C29.8153 51.6427 29.9433 51.1733 29.9433 50.608C29.9433 50.0107 29.8046 49.552 29.5273 49.232C29.2606 48.912 28.7699 48.752 28.0553 48.752H26.3913L26.5513 52.56ZM36.2744 58.16C35.5597 58.16 34.9517 57.9787 34.4504 57.616C33.9597 57.2427 33.7144 56.6667 33.7144 55.888C33.7144 55.0667 33.9757 54.4427 34.4984 54.016C35.021 53.5787 35.7197 53.36 36.5944 53.36C37.2344 53.36 37.7197 53.4133 38.0504 53.52C38.3917 53.6267 38.6157 53.7067 38.7224 53.76L38.8344 53.664C38.8344 53.344 38.8077 53.0613 38.7544 52.816C38.701 52.5707 38.5784 52.384 38.3864 52.256C38.1944 52.1173 37.8957 52.048 37.4904 52.048C36.765 52.048 36.1144 52.1067 35.5384 52.224C34.973 52.3413 34.525 52.448 34.1944 52.544V50.784C34.525 50.6667 35.0264 50.56 35.6984 50.464C36.3704 50.3573 37.0957 50.304 37.8744 50.304C38.5357 50.304 39.0744 50.3947 39.4904 50.576C39.917 50.7467 40.2424 50.9813 40.4664 51.28C40.701 51.5787 40.861 51.9093 40.9464 52.272C41.0424 52.624 41.0904 52.976 41.0904 53.328V55.456L41.4104 57.072L41.0904 58.016H38.9944V57.232L38.8344 57.152C38.749 57.2587 38.5997 57.392 38.3864 57.552C38.1837 57.712 37.9064 57.856 37.5544 57.984C37.213 58.1013 36.7864 58.16 36.2744 58.16ZM37.1544 56.384C37.613 56.384 37.9704 56.3413 38.2264 56.256C38.493 56.1707 38.6957 56.0853 38.8344 56V55.696C38.8344 55.4933 38.7117 55.2907 38.4664 55.088C38.2317 54.8853 37.8424 54.784 37.2984 54.784C36.893 54.784 36.5944 54.864 36.4024 55.024C36.2104 55.184 36.1144 55.3867 36.1144 55.632C36.1144 55.888 36.205 56.08 36.3864 56.208C36.5677 56.3253 36.8237 56.384 37.1544 56.384ZM42.9444 58V53.184L42.6244 51.424L43.1204 50.448H44.8644V51.136L45.0084 51.232C45.1257 51.1253 45.2857 51.0027 45.4884 50.864C45.7017 50.7147 45.9577 50.5813 46.2564 50.464C46.555 50.3467 46.891 50.288 47.2644 50.288C48.2244 50.288 48.9444 50.56 49.4244 51.104C49.9044 51.648 50.1444 52.4107 50.1444 53.392V55.424L50.4804 57.024L50.1444 58H47.9044V53.328C47.9044 52.9227 47.8137 52.6133 47.6324 52.4C47.4617 52.176 47.1897 52.064 46.8164 52.064L45.1844 52.368V58H42.9444ZM52.0385 58V49.232L51.7025 47.632L52.0385 46.672H54.2785V49.232L54.1025 53.536H55.0785L56.3105 50.448H58.9185V51.408L57.1425 54L58.3265 55.44L59.8305 57.056V58H57.3825L55.5745 55.04L54.2785 55.2V58H52.0385ZM63.4084 58.16C62.7257 58.16 62.155 58.1013 61.6964 57.984C61.2484 57.8667 60.8857 57.7333 60.6084 57.584V55.696C60.9924 55.8987 61.4297 56.0747 61.9204 56.224C62.4217 56.3627 62.9017 56.432 63.3604 56.432C63.9044 56.432 64.1764 56.256 64.1764 55.904C64.1764 55.712 64.0964 55.568 63.9364 55.472C63.787 55.376 63.5737 55.2907 63.2964 55.216C63.0297 55.1307 62.7204 55.0293 62.3684 54.912C61.7604 54.6987 61.291 54.4267 60.9604 54.096C60.6297 53.7653 60.4644 53.248 60.4644 52.544C60.4644 51.7867 60.7257 51.2213 61.2484 50.848C61.7817 50.4747 62.4804 50.288 63.3444 50.288C63.6964 50.288 63.995 50.3093 64.2404 50.352C64.4857 50.384 64.7097 50.416 64.9124 50.448L66.3684 51.248L65.7444 52.8L63.3444 52.032C63.1417 52.032 62.9764 52.0747 62.8484 52.16C62.731 52.2347 62.6724 52.3413 62.6724 52.48C62.6724 52.704 62.7844 52.8747 63.0084 52.992C63.2324 53.0987 63.5577 53.216 63.9844 53.344C64.8484 53.6 65.483 53.9093 65.8884 54.272C66.2937 54.6347 66.4964 55.168 66.4964 55.872C66.4964 56.5227 66.2404 57.0667 65.7284 57.504C65.227 57.9413 64.4537 58.16 63.4084 58.16Z"
    fill="#893815" />
  <g filter="url(#filter1_i_334_3941)">
    <path fill-rule="evenodd" clip-rule="evenodd"
      d="M0 0V74H59C74.464 74 87 61.464 87 46V28C87 12.536 74.464 0 59 0H0ZM59 4C72.2548 4 83 14.7452 83 28V46C83 59.2548 72.2548 70 59 70H4V4H59Z"
      fill="url(#paint1_linear_334_3941)" />
  </g>
  <path
    d="M54.7689 32.1911C55.9953 35.1144 57.1762 38.0566 58.3111 41.0167C58.0611 41.2522 58 41.3889 57.8767 41.4367C57.8179 41.4588 57.7528 41.4568 57.6956 41.4311L52.1267 38.9422L49.6611 43.3756C49.6088 43.4694 49.5304 43.5461 49.4354 43.5963C49.3405 43.6465 49.233 43.6681 49.126 43.6584C49.019 43.6488 48.9171 43.6083 48.8326 43.542C48.7481 43.4756 48.6847 43.3861 48.65 43.2844L46.4211 36.7222C49.9989 36.9467 52.78 35.4367 54.7689 32.1911ZM35.2422 32.12C37.1756 35.4244 39.9544 36.9578 43.5789 36.7222L41.35 43.2844C41.3153 43.3861 41.2519 43.4756 41.1674 43.542C41.083 43.6083 40.981 43.6488 40.874 43.6584C40.767 43.6681 40.6595 43.6465 40.5646 43.5963C40.4696 43.5461 40.3912 43.4694 40.3389 43.3756L37.8722 38.9422L32.3133 41.4278C32.2529 41.4548 32.1842 41.4568 32.1222 41.4333C31.9922 41.3844 31.9267 41.24 31.6911 41.0022C32.6622 38.4278 33.8456 35.4667 35.2422 32.12ZM44.7833 14C50.5133 14 55.16 18.7144 55.16 24.5289C55.16 30.3444 50.5133 35.0578 44.7822 35.0578C39.0522 35.0578 34.4067 30.3444 34.4067 24.5289C34.4067 18.7144 39.0522 14 44.7833 14ZM44.3356 18.2667L44.2833 18.3522L42.6967 21.6144L39.1311 22.14C39.0373 22.1537 38.9485 22.1912 38.8732 22.249C38.798 22.3067 38.7387 22.3827 38.7012 22.4699C38.6637 22.557 38.6491 22.6522 38.6588 22.7466C38.6685 22.841 38.7022 22.9312 38.7567 23.0089L38.8222 23.0856L41.4067 25.6411L40.7989 29.2411C40.7829 29.3351 40.7914 29.4316 40.8236 29.5214C40.8557 29.6111 40.9104 29.6911 40.9824 29.7536C41.0544 29.8161 41.1412 29.859 41.2346 29.8782C41.328 29.8975 41.4247 29.8923 41.5156 29.8633L41.6078 29.8244L44.7833 28.1311L47.9589 29.8244C48.0429 29.8692 48.1371 29.8916 48.2323 29.8895C48.3275 29.8874 48.4205 29.8609 48.5025 29.8125C48.5845 29.7641 48.6527 29.6954 48.7005 29.613C48.7483 29.5307 48.7742 29.4374 48.7756 29.3422L48.7678 29.2422L48.1589 25.6422L50.7444 23.0856C50.8121 23.019 50.8615 22.9362 50.888 22.8451C50.9145 22.754 50.9173 22.6576 50.896 22.5651C50.8747 22.4727 50.8301 22.3872 50.7665 22.3169C50.7028 22.2465 50.6221 22.1937 50.5322 22.1633L50.4344 22.1411L46.87 21.6144L45.2822 18.3522C45.2403 18.2663 45.1769 18.1927 45.0982 18.1385C45.0195 18.0843 44.9282 18.0513 44.833 18.0427C44.7378 18.0341 44.642 18.0502 44.5549 18.0894C44.4678 18.1286 44.3922 18.1897 44.3356 18.2667Z"
    fill="#893815" />
  <defs>
    <filter id="filter0_i_334_3941" x="4" y="4" width="79" height="66" filterUnits="userSpaceOnUse"
      color-interpolation-filters="sRGB">
      <feFlood flood-opacity="0" result="BackgroundImageFix" />
      <feBlend mode="normal" in="SourceGraphic" in2="BackgroundImageFix" result="shape" />
      <feColorMatrix in="SourceAlpha" type="matrix" values="0 0 0 0 0 0 0 0 0 0 0 0 0 0 0 0 0 0 127 0"
        result="hardAlpha" />
      <feOffset dx="0.5" dy="0.5" />
      <feComposite in2="hardAlpha" operator="arithmetic" k2="-1" k3="1" />
      <feColorMatrix type="matrix" values="0 0 0 0 1 0 0 0 0 0.91675 0 0 0 0 0.775 0 0 0 1 0" />
      <feBlend mode="normal" in2="shape" result="effect1_innerShadow_334_3941" />
    </filter>
    <filter id="filter1_i_334_3941" x="0" y="0" width="87" height="74" filterUnits="userSpaceOnUse"
      color-interpolation-filters="sRGB">
      <feFlood flood-opacity="0" result="BackgroundImageFix" />
      <feBlend mode="normal" in="SourceGraphic" in2="BackgroundImageFix" result="shape" />
      <feColorMatrix in="SourceAlpha" type="matrix" values="0 0 0 0 0 0 0 0 0 0 0 0 0 0 0 0 0 0 127 0"
        result="hardAlpha" />
      <feOffset dx="0.5" dy="0.5" />
      <feComposite in2="hardAlpha" operator="arithmetic" k2="-1" k3="1" />
      <feColorMatrix type="matrix" values="0 0 0 0 1 0 0 0 0 0.915625 0 0 0 0 0.775 0 0 0 0.8 0" />
      <feBlend mode="normal" in2="shape" result="effect1_innerShadow_334_3941" />
    </filter>
    <linearGradient id="paint0_linear_334_3941" x1="59" y1="4" x2="19.5" y2="70" gradientUnits="userSpaceOnUse">
      <stop stop-color="#F8D9A5" />
      <stop offset="1" stop-color="#FFCA72" />
    </linearGradient>
    <linearGradient id="paint1_linear_334_3941" x1="38.5" y1="4" x2="38.5" y2="70" gradientUnits="userSpaceOnUse">
      <stop stop-color="#AF562E" />
      <stop offset="1" stop-color="#7D3A1D" />
    </linearGradient>
  </defs>
</svg>