<svg width="74" height="77" viewBox="0 0 74 77" fill="none" xmlns="http://www.w3.org/2000/svg">
<g filter="url(#filter0_i_366_210)">
<path d="M28 4C14.7452 4 4 14.7452 4 28L4 83L70 83L70 28C70 14.7452 59.2548 4 46 4L28 4Z" fill="url(#paint0_linear_366_210)"/>
</g>
<g filter="url(#filter1_i_366_210)">
<path fill-rule="evenodd" clip-rule="evenodd" d="M3.80289e-06 87L74 87L74 28C74 12.536 61.464 -2.68668e-06 46 -2.01072e-06L28 -1.22392e-06C12.536 -5.47967e-07 5.47967e-07 12.536 1.22392e-06 28L3.80289e-06 87ZM4 28C4 14.7452 14.7452 4 28 4L46 4C59.2548 4 70 14.7452 70 28L70 83L4 83L4 28Z" fill="url(#paint1_linear_366_210)"/>
</g>
<path d="M16.8113 64.5V55.748L16.4913 54.132L16.8113 53.172H20.6513C21.4299 53.172 22.1286 53.2947 22.7473 53.54C23.3766 53.7747 23.8726 54.18 24.2353 54.756C24.6086 55.3213 24.7953 56.1053 24.7953 57.108C24.7953 58.0573 24.6139 58.8147 24.2513 59.38C23.8993 59.9453 23.4086 60.3667 22.7793 60.644L23.2433 61.06L24.6673 62.724L25.5793 63.54V64.5H22.6193L20.3793 61.092H19.0513V61.924L19.2113 63.524L19.0513 64.5H16.8113ZM19.0513 59.06H20.6193C21.3233 59.06 21.8033 58.8787 22.0593 58.516C22.3153 58.1427 22.4433 57.6733 22.4433 57.108C22.4433 56.5107 22.3046 56.052 22.0273 55.732C21.7606 55.412 21.2699 55.252 20.5553 55.252H18.8913L19.0513 59.06ZM28.7744 64.66C28.0597 64.66 27.4517 64.4787 26.9504 64.116C26.4597 63.7427 26.2144 63.1667 26.2144 62.388C26.2144 61.5667 26.4757 60.9427 26.9984 60.516C27.521 60.0787 28.2197 59.86 29.0944 59.86C29.7344 59.86 30.2197 59.9133 30.5504 60.02C30.8917 60.1267 31.1157 60.2067 31.2224 60.26L31.3344 60.164C31.3344 59.844 31.3077 59.5613 31.2544 59.316C31.201 59.0707 31.0784 58.884 30.8864 58.756C30.6944 58.6173 30.3957 58.548 29.9904 58.548C29.265 58.548 28.6144 58.6067 28.0384 58.724C27.473 58.8413 27.025 58.948 26.6944 59.044V57.284C27.025 57.1667 27.5264 57.06 28.1984 56.964C28.8704 56.8573 29.5957 56.804 30.3744 56.804C31.0357 56.804 31.5744 56.8947 31.9904 57.076C32.417 57.2467 32.7424 57.4813 32.9664 57.78C33.201 58.0787 33.361 58.4093 33.4464 58.772C33.5424 59.124 33.5904 59.476 33.5904 59.828V61.956L33.9104 63.572L33.5904 64.516H31.4944V63.732L31.3344 63.652C31.249 63.7587 31.0997 63.892 30.8864 64.052C30.6837 64.212 30.4064 64.356 30.0544 64.484C29.713 64.6013 29.2864 64.66 28.7744 64.66ZM29.6544 62.884C30.113 62.884 30.4704 62.8413 30.7264 62.756C30.993 62.6707 31.1957 62.5853 31.3344 62.5V62.196C31.3344 61.9933 31.2117 61.7907 30.9664 61.588C30.7317 61.3853 30.3424 61.284 29.7984 61.284C29.393 61.284 29.0944 61.364 28.9024 61.524C28.7104 61.684 28.6144 61.8867 28.6144 62.132C28.6144 62.388 28.705 62.58 28.8864 62.708C29.0677 62.8253 29.3237 62.884 29.6544 62.884ZM35.4444 64.5V59.684L35.1244 57.924L35.6204 56.948H37.3644V57.636L37.5084 57.732C37.6257 57.6253 37.7857 57.5027 37.9884 57.364C38.2017 57.2147 38.4577 57.0813 38.7564 56.964C39.055 56.8467 39.391 56.788 39.7644 56.788C40.7244 56.788 41.4444 57.06 41.9244 57.604C42.4044 58.148 42.6444 58.9107 42.6444 59.892V61.924L42.9804 63.524L42.6444 64.5H40.4044V59.828C40.4044 59.4227 40.3137 59.1133 40.1324 58.9C39.9617 58.676 39.6897 58.564 39.3164 58.564L37.6844 58.868V64.5H35.4444ZM44.5385 64.5V55.732L44.2025 54.132L44.5385 53.172H46.7785V55.732L46.6025 60.036H47.5785L48.8105 56.948H51.4185V57.908L49.6425 60.5L50.8265 61.94L52.3305 63.556V64.5H49.8825L48.0745 61.54L46.7785 61.7V64.5H44.5385ZM55.9084 64.66C55.2257 64.66 54.655 64.6013 54.1964 64.484C53.7484 64.3667 53.3857 64.2333 53.1084 64.084V62.196C53.4924 62.3987 53.9297 62.5747 54.4204 62.724C54.9217 62.8627 55.4017 62.932 55.8604 62.932C56.4044 62.932 56.6764 62.756 56.6764 62.404C56.6764 62.212 56.5964 62.068 56.4364 61.972C56.287 61.876 56.0737 61.7907 55.7964 61.716C55.5297 61.6307 55.2204 61.5293 54.8684 61.412C54.2604 61.1987 53.791 60.9267 53.4604 60.596C53.1297 60.2653 52.9644 59.748 52.9644 59.044C52.9644 58.2867 53.2257 57.7213 53.7484 57.348C54.2817 56.9747 54.9804 56.788 55.8444 56.788C56.1964 56.788 56.495 56.8093 56.7404 56.852C56.9857 56.884 57.2097 56.916 57.4124 56.948L58.8684 57.748L58.2444 59.3L55.8444 58.532C55.6417 58.532 55.4764 58.5747 55.3484 58.66C55.231 58.7347 55.1724 58.8413 55.1724 58.98C55.1724 59.204 55.2844 59.3747 55.5084 59.492C55.7324 59.5987 56.0577 59.716 56.4844 59.844C57.3484 60.1 57.983 60.4093 58.3884 60.772C58.7937 61.1347 58.9964 61.668 58.9964 62.372C58.9964 63.0227 58.7404 63.5667 58.2284 64.004C57.727 64.4413 56.9537 64.66 55.9084 64.66Z" fill="#893815"/>
<g clip-path="url(#clip0_366_210)">
<path d="M47.2687 38.6911C48.4951 41.6144 49.676 44.5566 50.8109 47.5167C50.5609 47.7522 50.4998 47.8889 50.3765 47.9367C50.3177 47.9588 50.2526 47.9568 50.1954 47.9311L44.6265 45.4422L42.1609 49.8756C42.1086 49.9694 42.0302 50.0461 41.9353 50.0963C41.8403 50.1465 41.7328 50.1681 41.6258 50.1584C41.5188 50.1488 41.4169 50.1083 41.3324 50.042C41.2479 49.9756 41.1845 49.8861 41.1498 49.7844L38.9209 43.2222C42.4987 43.4467 45.2798 41.9367 47.2687 38.6911ZM27.742 38.62C29.6754 41.9244 32.4543 43.4578 36.0787 43.2222L33.8498 49.7844C33.8151 49.8861 33.7517 49.9756 33.6672 50.042C33.5828 50.1083 33.4808 50.1488 33.3738 50.1584C33.2668 50.1681 33.1593 50.1465 33.0644 50.0963C32.9694 50.0461 32.891 49.9694 32.8387 49.8756L30.372 45.4422L24.8131 47.9278C24.7527 47.9548 24.684 47.9568 24.622 47.9333C24.492 47.8844 24.4265 47.74 24.1909 47.5022C25.162 44.9278 26.3454 41.9667 27.742 38.62ZM37.2831 20.5C43.0131 20.5 47.6598 25.2144 47.6598 31.0289C47.6598 36.8444 43.0131 41.5578 37.282 41.5578C31.552 41.5578 26.9065 36.8444 26.9065 31.0289C26.9065 25.2144 31.552 20.5 37.2831 20.5ZM36.8354 24.7667L36.7831 24.8522L35.1965 28.1144L31.6309 28.64C31.5371 28.6537 31.4483 28.6912 31.373 28.749C31.2978 28.8067 31.2385 28.8827 31.201 28.9699C31.1635 29.057 31.1489 29.1522 31.1586 29.2466C31.1683 29.341 31.202 29.4312 31.2565 29.5089L31.322 29.5856L33.9065 32.1411L33.2987 35.7411C33.2827 35.8351 33.2912 35.9316 33.3234 36.0214C33.3555 36.1111 33.4102 36.1911 33.4822 36.2536C33.5542 36.3161 33.641 36.359 33.7344 36.3782C33.8278 36.3975 33.9245 36.3923 34.0154 36.3633L34.1076 36.3244L37.2831 34.6311L40.4587 36.3244C40.5427 36.3692 40.6369 36.3916 40.7321 36.3895C40.8273 36.3874 40.9203 36.3609 41.0023 36.3125C41.0843 36.2641 41.1525 36.1954 41.2003 36.113C41.2481 36.0307 41.274 35.9374 41.2754 35.8422L41.2676 35.7422L40.6587 32.1422L43.2442 29.5856C43.3119 29.519 43.3613 29.4362 43.3878 29.3451C43.4143 29.254 43.4171 29.1576 43.3958 29.0651C43.3745 28.9727 43.3299 28.8872 43.2663 28.8169C43.2026 28.7465 43.1219 28.6937 43.032 28.6633L42.9342 28.6411L39.3698 28.1144L37.782 24.8522C37.7401 24.7663 37.6767 24.6927 37.598 24.6385C37.5193 24.5843 37.428 24.5513 37.3328 24.5427C37.2376 24.5341 37.1418 24.5502 37.0547 24.5894C36.9676 24.6286 36.892 24.6897 36.8354 24.7667Z" fill="#893815"/>
</g>
<defs>
<filter id="filter0_i_366_210" x="4" y="4" width="66" height="79" filterUnits="userSpaceOnUse" color-interpolation-filters="sRGB">
<feFlood flood-opacity="0" result="BackgroundImageFix"/>
<feBlend mode="normal" in="SourceGraphic" in2="BackgroundImageFix" result="shape"/>
<feColorMatrix in="SourceAlpha" type="matrix" values="0 0 0 0 0 0 0 0 0 0 0 0 0 0 0 0 0 0 127 0" result="hardAlpha"/>
<feOffset dx="0.5" dy="0.5"/>
<feComposite in2="hardAlpha" operator="arithmetic" k2="-1" k3="1"/>
<feColorMatrix type="matrix" values="0 0 0 0 1 0 0 0 0 0.91675 0 0 0 0 0.775 0 0 0 1 0"/>
<feBlend mode="normal" in2="shape" result="effect1_innerShadow_366_210"/>
</filter>
<filter id="filter1_i_366_210" x="0" y="0" width="74" height="87" filterUnits="userSpaceOnUse" color-interpolation-filters="sRGB">
<feFlood flood-opacity="0" result="BackgroundImageFix"/>
<feBlend mode="normal" in="SourceGraphic" in2="BackgroundImageFix" result="shape"/>
<feColorMatrix in="SourceAlpha" type="matrix" values="0 0 0 0 0 0 0 0 0 0 0 0 0 0 0 0 0 0 127 0" result="hardAlpha"/>
<feOffset dx="0.5" dy="0.5"/>
<feComposite in2="hardAlpha" operator="arithmetic" k2="-1" k3="1"/>
<feColorMatrix type="matrix" values="0 0 0 0 1 0 0 0 0 0.915625 0 0 0 0 0.775 0 0 0 0.8 0"/>
<feBlend mode="normal" in2="shape" result="effect1_innerShadow_366_210"/>
</filter>
<linearGradient id="paint0_linear_366_210" x1="4" y1="28" x2="70" y2="67.5" gradientUnits="userSpaceOnUse">
<stop stop-color="#F8D9A5"/>
<stop offset="1" stop-color="#FFCA72"/>
</linearGradient>
<linearGradient id="paint1_linear_366_210" x1="4" y1="48.5" x2="70" y2="48.5" gradientUnits="userSpaceOnUse">
<stop stop-color="#AF562E"/>
<stop offset="1" stop-color="#7D3A1D"/>
</linearGradient>
<clipPath id="clip0_366_210">
<rect width="30" height="30" fill="white" transform="translate(22.5 20.5)"/>
</clipPath>
</defs>
</svg>
