<svg xmlns="http://www.w3.org/2000/svg" width="32" height="32" viewBox="0 0 32 32" fill="none">
  <path
    d="M10.002 8.95118C11.663 7.29006 13.9562 6.26126 16.485 6.26126C19.285 6.26126 21.8751 7.53643 23.5911 9.63823L20.4162 12.8133H28.2786V4.95076L25.4557 7.77454C23.2495 5.19398 19.9926 3.64041 16.4851 3.64041C13.2333 3.64041 10.2848 4.963 8.1489 7.09887C6.60377 8.64435 5.49301 10.6067 4.99268 12.8133H7.68842C8.12658 11.3235 8.92962 10.0233 10.002 8.95118Z"
    fill="#56050F" />
  <path
    d="M22.968 21.917C21.3071 23.5781 19.0139 24.6071 16.4852 24.6071C13.6852 24.6071 11.0949 23.3318 9.37888 21.23L12.554 18.0551H4.69141V25.9175L7.51432 23.0945C9.72064 25.6744 12.9775 27.228 16.4852 27.228C19.7369 27.228 22.6853 25.9059 24.8211 23.7702C26.3636 22.2265 27.4732 20.2553 27.9749 18.0551H25.2716C24.8301 19.5311 24.0308 20.8543 22.968 21.917Z"
    fill="#56050F" />
</svg>