<svg width="87" height="74" viewBox="0 0 87 74" fill="none" xmlns="http://www.w3.org/2000/svg">
  <g filter="url(#filter0_i_334_3902)">
    <path d="M4 28C4 14.7452 14.7452 4 28 4H83V70H28C14.7452 70 4 59.2548 4 46V28Z"
      fill="url(#paint0_linear_334_3902)" />
  </g>
  <path
    d="M61.8209 32.15C60.8468 23.675 59.1235 17.6 53.6539 17.6C50.8816 17.6 49.458 20.45 46.9854 20.675C44.4379 20.45 43.0892 17.6 40.3169 17.6C34.8472 17.6 33.1239 23.675 32.2248 32.075C31.7003 36.575 32.1499 40.325 34.9221 40.325C38.8183 40.325 38.9682 36.8 41.7405 35.15C42.7895 34.625 45.1122 34.4 47.0603 34.325C49.0084 34.4 51.3311 34.625 52.3801 35.15C55.1524 36.8 55.3022 40.325 59.1984 40.325C61.8958 40.4 62.2704 36.65 61.8209 32.15ZM40.3918 31.4C38.2189 31.4 36.4956 29.6 36.4956 27.5C36.4956 25.4 38.2189 23.6 40.3918 23.6C42.5647 23.6 44.288 25.325 44.288 27.5C44.288 29.675 42.4898 31.4 40.3918 31.4ZM57.8498 28.25H54.7778V31.325H53.2792V28.25H50.2072V26.75H53.2792V23.75H54.7778V26.75H57.8498V28.25Z"
    fill="#893815" />
  <path
    d="M38.144 27.5C38.144 28.1 38.3688 28.625 38.8183 29.075C39.193 29.45 39.7924 29.75 40.3918 29.75C40.9912 29.75 41.5157 29.525 41.9653 29.075C42.3399 28.7 42.6396 28.1 42.6396 27.5C42.6396 26.9 42.4148 26.375 41.9653 25.925C41.5906 25.55 40.9912 25.25 40.3918 25.25C39.7924 25.25 39.2679 25.475 38.8183 25.925C38.3688 26.3 38.144 26.9 38.144 27.5Z"
    fill="#893815" />
  <path
    d="M22.295 58V48.72L18.775 48.88V46.672H28.135V48.88L24.535 48.72V55.44L24.711 57.04L24.535 58H22.295ZM30.9306 58.16C30.2906 58.16 29.7946 58.0373 29.4426 57.792C29.1013 57.5467 28.8613 57.1947 28.7226 56.736C28.5946 56.2667 28.5306 55.7067 28.5306 55.056V50.432H30.7706V55.12C30.7706 55.5573 30.8506 55.8773 31.0106 56.08C31.1813 56.2827 31.464 56.384 31.8586 56.384C32.36 56.384 32.7546 56.192 33.0426 55.808C33.3413 55.424 33.4906 54.976 33.4906 54.464V50.432H35.7306V55.424L36.0666 57.024L35.7306 58H33.6666V57.216L33.5066 57.136C33.368 57.2747 33.1653 57.424 32.8986 57.584C32.6426 57.744 32.344 57.8827 32.0026 58C31.672 58.1067 31.3146 58.16 30.9306 58.16ZM39.9511 58.16C39.2258 58.16 38.6978 58 38.3671 57.68C38.0365 57.36 37.8711 56.8747 37.8711 56.224V51.936H36.8631V50.896L37.7111 50.112L38.8471 48.128H40.0951V50.448H42.1751V52.048H40.0951V56.432L42.1751 56.416V57.68C42.1751 57.68 42.0898 57.7227 41.9191 57.808C41.7485 57.8827 41.4978 57.9573 41.1671 58.032C40.8471 58.1173 40.4418 58.16 39.9511 58.16ZM46.756 58.16C45.4547 58.16 44.5 57.8187 43.892 57.136C43.284 56.4533 42.98 55.4827 42.98 54.224C42.98 52.9547 43.284 51.984 43.892 51.312C44.5 50.6293 45.4547 50.288 46.756 50.288C48.1 50.288 49.06 50.6293 49.636 51.312C50.2227 51.984 50.516 52.9547 50.516 54.224C50.516 55.4827 50.2227 56.4533 49.636 57.136C49.06 57.8187 48.1 58.16 46.756 58.16ZM46.756 56.56C47.1933 56.56 47.5507 56.3893 47.828 56.048C48.116 55.7067 48.26 55.0987 48.26 54.224C48.26 53.3493 48.116 52.7413 47.828 52.4C47.5507 52.0587 47.1933 51.888 46.756 51.888C46.308 51.888 45.94 52.0587 45.652 52.4C45.3747 52.7413 45.236 53.3493 45.236 54.224C45.236 55.0987 45.38 55.7067 45.668 56.048C45.956 56.3893 46.3187 56.56 46.756 56.56ZM51.976 58V52.992L51.64 51.392L51.976 50.432H53.512L53.832 50.8C53.832 50.8 53.9013 50.7573 54.04 50.672C54.1893 50.576 54.3973 50.4853 54.664 50.4C54.9307 50.3147 55.256 50.272 55.64 50.272C55.8533 50.272 56.0667 50.288 56.28 50.32C56.4933 50.352 56.6587 50.3947 56.776 50.448L57.816 51.488L56.936 53.056L54.744 51.952L54.184 52.176V58H51.976ZM59.8925 49.648L58.1805 47.936L59.8925 46.224L61.5885 47.936L59.8925 49.648ZM58.7725 58V52.704L58.4365 51.424L58.7565 50.448H60.9965V58H58.7725ZM64.8525 58.16C64.1378 58.16 63.5298 57.9787 63.0285 57.616C62.5378 57.2427 62.2925 56.6667 62.2925 55.888C62.2925 55.0667 62.5538 54.4427 63.0765 54.016C63.5992 53.5787 64.2978 53.36 65.1725 53.36C65.8125 53.36 66.2978 53.4133 66.6285 53.52C66.9698 53.6267 67.1938 53.7067 67.3005 53.76L67.4125 53.664C67.4125 53.344 67.3858 53.0613 67.3325 52.816C67.2792 52.5707 67.1565 52.384 66.9645 52.256C66.7725 52.1173 66.4738 52.048 66.0685 52.048C65.3432 52.048 64.6925 52.1067 64.1165 52.224C63.5512 52.3413 63.1032 52.448 62.7725 52.544V50.784C63.1032 50.6667 63.6045 50.56 64.2765 50.464C64.9485 50.3573 65.6738 50.304 66.4525 50.304C67.1138 50.304 67.6525 50.3947 68.0685 50.576C68.4952 50.7467 68.8205 50.9813 69.0445 51.28C69.2792 51.5787 69.4392 51.9093 69.5245 52.272C69.6205 52.624 69.6685 52.976 69.6685 53.328V55.456L69.9885 57.072L69.6685 58.016H67.5725V57.232L67.4125 57.152C67.3272 57.2587 67.1778 57.392 66.9645 57.552C66.7618 57.712 66.4845 57.856 66.1325 57.984C65.7912 58.1013 65.3645 58.16 64.8525 58.16ZM65.7325 56.384C66.1912 56.384 66.5485 56.3413 66.8045 56.256C67.0712 56.1707 67.2738 56.0853 67.4125 56V55.696C67.4125 55.4933 67.2898 55.2907 67.0445 55.088C66.8098 54.8853 66.4205 54.784 65.8765 54.784C65.4712 54.784 65.1725 54.864 64.9805 55.024C64.7885 55.184 64.6925 55.3867 64.6925 55.632C64.6925 55.888 64.7832 56.08 64.9645 56.208C65.1458 56.3253 65.4018 56.384 65.7325 56.384ZM71.4745 58V49.232L71.1385 47.632L71.4745 46.672H73.7145V58H71.4745Z"
    fill="#893815" />
  <g filter="url(#filter1_i_334_3902)">
    <path fill-rule="evenodd" clip-rule="evenodd"
      d="M87 0V74H28C12.536 74 0 61.464 0 46V28C0 12.536 12.536 0 28 0H87ZM28 4C14.7452 4 4 14.7452 4 28V46C4 59.2548 14.7452 70 28 70H83V4H28Z"
      fill="url(#paint1_linear_334_3902)" />
  </g>
  <defs>
    <filter id="filter0_i_334_3902" x="4" y="4" width="79" height="66" filterUnits="userSpaceOnUse"
      color-interpolation-filters="sRGB">
      <feFlood flood-opacity="0" result="BackgroundImageFix" />
      <feBlend mode="normal" in="SourceGraphic" in2="BackgroundImageFix" result="shape" />
      <feColorMatrix in="SourceAlpha" type="matrix" values="0 0 0 0 0 0 0 0 0 0 0 0 0 0 0 0 0 0 127 0"
        result="hardAlpha" />
      <feOffset dx="0.5" dy="0.5" />
      <feComposite in2="hardAlpha" operator="arithmetic" k2="-1" k3="1" />
      <feColorMatrix type="matrix" values="0 0 0 0 1 0 0 0 0 0.91675 0 0 0 0 0.775 0 0 0 1 0" />
      <feBlend mode="normal" in2="shape" result="effect1_innerShadow_334_3902" />
    </filter>
    <filter id="filter1_i_334_3902" x="0" y="0" width="87" height="74" filterUnits="userSpaceOnUse"
      color-interpolation-filters="sRGB">
      <feFlood flood-opacity="0" result="BackgroundImageFix" />
      <feBlend mode="normal" in="SourceGraphic" in2="BackgroundImageFix" result="shape" />
      <feColorMatrix in="SourceAlpha" type="matrix" values="0 0 0 0 0 0 0 0 0 0 0 0 0 0 0 0 0 0 127 0"
        result="hardAlpha" />
      <feOffset dx="0.5" dy="0.5" />
      <feComposite in2="hardAlpha" operator="arithmetic" k2="-1" k3="1" />
      <feColorMatrix type="matrix" values="0 0 0 0 1 0 0 0 0 0.915625 0 0 0 0 0.775 0 0 0 0.8 0" />
      <feBlend mode="normal" in2="shape" result="effect1_innerShadow_334_3902" />
    </filter>
    <linearGradient id="paint0_linear_334_3902" x1="28" y1="4" x2="67.5" y2="70" gradientUnits="userSpaceOnUse">
      <stop stop-color="#F8D9A5" />
      <stop offset="1" stop-color="#FFCA72" />
    </linearGradient>
    <linearGradient id="paint1_linear_334_3902" x1="48.5" y1="4" x2="48.5" y2="70" gradientUnits="userSpaceOnUse">
      <stop stop-color="#AF562E" />
      <stop offset="1" stop-color="#7D3A1D" />
    </linearGradient>
  </defs>
</svg>