<svg width="74" height="77" viewBox="0 0 74 77" fill="none" xmlns="http://www.w3.org/2000/svg">
<g filter="url(#filter0_i_366_202)">
<path d="M46 4C59.2548 4 70 14.7452 70 28L70 83L4 83L4 28C4 14.7452 14.7452 4 28 4L46 4Z" fill="url(#paint0_linear_366_202)"/>
</g>
<g clip-path="url(#clip0_366_202)">
<path d="M52.3207 38.65C51.3467 30.175 49.6233 24.1 44.1537 24.1C41.3814 24.1 39.9578 26.95 37.4852 27.175C34.9377 26.95 33.589 24.1 30.8167 24.1C25.3471 24.1 23.6237 30.175 22.7246 38.575C22.2001 43.075 22.6497 46.825 25.422 46.825C29.3182 46.825 29.468 43.3 32.2403 41.65C33.2893 41.125 35.612 40.9 37.5601 40.825C39.5082 40.9 41.831 41.125 42.8799 41.65C45.6522 43.3 45.8021 46.825 49.6983 46.825C52.3956 46.9 52.7703 43.15 52.3207 38.65ZM30.8916 37.9C28.7188 37.9 26.9954 36.1 26.9954 34C26.9954 31.9 28.7188 30.1 30.8916 30.1C33.0645 30.1 34.7878 31.825 34.7878 34C34.7878 36.175 32.9896 37.9 30.8916 37.9ZM48.3496 34.75H45.2776V37.825H43.7791V34.75H40.7071V33.25H43.7791V30.25H45.2776V33.25H48.3496V34.75Z" fill="#893815"/>
<path d="M28.644 34C28.644 34.6 28.8688 35.125 29.3184 35.575C29.693 35.95 30.2924 36.25 30.8918 36.25C31.4913 36.25 32.0158 36.025 32.4653 35.575C32.8399 35.2 33.1397 34.6 33.1397 34C33.1397 33.4 32.9149 32.875 32.4653 32.425C32.0907 32.05 31.4913 31.75 30.8918 31.75C30.2924 31.75 29.7679 31.975 29.3184 32.425C28.8688 32.8 28.644 33.4 28.644 34Z" fill="#893815"/>
</g>
<path d="M12.795 64.5V55.22L9.275 55.38V53.172H18.635V55.38L15.035 55.22V61.94L15.211 63.54L15.035 64.5H12.795ZM21.4306 64.66C20.7906 64.66 20.2946 64.5373 19.9426 64.292C19.6013 64.0467 19.3613 63.6947 19.2226 63.236C19.0946 62.7667 19.0306 62.2067 19.0306 61.556V56.932H21.2706V61.62C21.2706 62.0573 21.3506 62.3773 21.5106 62.58C21.6813 62.7827 21.964 62.884 22.3586 62.884C22.86 62.884 23.2546 62.692 23.5426 62.308C23.8413 61.924 23.9906 61.476 23.9906 60.964V56.932H26.2306V61.924L26.5666 63.524L26.2306 64.5H24.1666V63.716L24.0066 63.636C23.868 63.7747 23.6653 63.924 23.3986 64.084C23.1426 64.244 22.844 64.3827 22.5026 64.5C22.172 64.6067 21.8146 64.66 21.4306 64.66ZM30.4511 64.66C29.7258 64.66 29.1978 64.5 28.8671 64.18C28.5365 63.86 28.3711 63.3747 28.3711 62.724V58.436H27.3631V57.396L28.2111 56.612L29.3471 54.628H30.5951V56.948H32.6751V58.548H30.5951V62.932L32.6751 62.916V64.18C32.6751 64.18 32.5898 64.2227 32.4191 64.308C32.2485 64.3827 31.9978 64.4573 31.6671 64.532C31.3471 64.6173 30.9418 64.66 30.4511 64.66ZM37.256 64.66C35.9547 64.66 35 64.3187 34.392 63.636C33.784 62.9533 33.48 61.9827 33.48 60.724C33.48 59.4547 33.784 58.484 34.392 57.812C35 57.1293 35.9547 56.788 37.256 56.788C38.6 56.788 39.56 57.1293 40.136 57.812C40.7227 58.484 41.016 59.4547 41.016 60.724C41.016 61.9827 40.7227 62.9533 40.136 63.636C39.56 64.3187 38.6 64.66 37.256 64.66ZM37.256 63.06C37.6933 63.06 38.0507 62.8893 38.328 62.548C38.616 62.2067 38.76 61.5987 38.76 60.724C38.76 59.8493 38.616 59.2413 38.328 58.9C38.0507 58.5587 37.6933 58.388 37.256 58.388C36.808 58.388 36.44 58.5587 36.152 58.9C35.8747 59.2413 35.736 59.8493 35.736 60.724C35.736 61.5987 35.88 62.2067 36.168 62.548C36.456 62.8893 36.8187 63.06 37.256 63.06ZM42.476 64.5V59.492L42.14 57.892L42.476 56.932H44.012L44.332 57.3C44.332 57.3 44.4013 57.2573 44.54 57.172C44.6893 57.076 44.8973 56.9853 45.164 56.9C45.4307 56.8147 45.756 56.772 46.14 56.772C46.3533 56.772 46.5667 56.788 46.78 56.82C46.9933 56.852 47.1587 56.8947 47.276 56.948L48.316 57.988L47.436 59.556L45.244 58.452L44.684 58.676V64.5H42.476ZM50.3925 56.148L48.6805 54.436L50.3925 52.724L52.0885 54.436L50.3925 56.148ZM49.2725 64.5V59.204L48.9365 57.924L49.2565 56.948H51.4965V64.5H49.2725ZM55.3525 64.66C54.6378 64.66 54.0298 64.4787 53.5285 64.116C53.0378 63.7427 52.7925 63.1667 52.7925 62.388C52.7925 61.5667 53.0538 60.9427 53.5765 60.516C54.0992 60.0787 54.7978 59.86 55.6725 59.86C56.3125 59.86 56.7978 59.9133 57.1285 60.02C57.4698 60.1267 57.6938 60.2067 57.8005 60.26L57.9125 60.164C57.9125 59.844 57.8858 59.5613 57.8325 59.316C57.7792 59.0707 57.6565 58.884 57.4645 58.756C57.2725 58.6173 56.9738 58.548 56.5685 58.548C55.8432 58.548 55.1925 58.6067 54.6165 58.724C54.0512 58.8413 53.6032 58.948 53.2725 59.044V57.284C53.6032 57.1667 54.1045 57.06 54.7765 56.964C55.4485 56.8573 56.1738 56.804 56.9525 56.804C57.6138 56.804 58.1525 56.8947 58.5685 57.076C58.9952 57.2467 59.3205 57.4813 59.5445 57.78C59.7792 58.0787 59.9392 58.4093 60.0245 58.772C60.1205 59.124 60.1685 59.476 60.1685 59.828V61.956L60.4885 63.572L60.1685 64.516H58.0725V63.732L57.9125 63.652C57.8272 63.7587 57.6778 63.892 57.4645 64.052C57.2618 64.212 56.9845 64.356 56.6325 64.484C56.2912 64.6013 55.8645 64.66 55.3525 64.66ZM56.2325 62.884C56.6912 62.884 57.0485 62.8413 57.3045 62.756C57.5712 62.6707 57.7738 62.5853 57.9125 62.5V62.196C57.9125 61.9933 57.7898 61.7907 57.5445 61.588C57.3098 61.3853 56.9205 61.284 56.3765 61.284C55.9712 61.284 55.6725 61.364 55.4805 61.524C55.2885 61.684 55.1925 61.8867 55.1925 62.132C55.1925 62.388 55.2832 62.58 55.4645 62.708C55.6458 62.8253 55.9018 62.884 56.2325 62.884ZM61.9745 64.5V55.732L61.6385 54.132L61.9745 53.172H64.2145V64.5H61.9745Z" fill="#893815"/>
<g filter="url(#filter1_i_366_202)">
<path fill-rule="evenodd" clip-rule="evenodd" d="M74 87L-3.80289e-06 87L-1.22392e-06 28C-5.47967e-07 12.536 12.536 -2.68668e-06 28 -2.01072e-06L46 -1.22392e-06C61.464 -5.47967e-07 74 12.536 74 28L74 87ZM70 28C70 14.7452 59.2548 4 46 4L28 4C14.7452 4 4 14.7452 4 28L4 83L70 83L70 28Z" fill="url(#paint1_linear_366_202)"/>
</g>
<defs>
<filter id="filter0_i_366_202" x="4" y="4" width="66" height="79" filterUnits="userSpaceOnUse" color-interpolation-filters="sRGB">
<feFlood flood-opacity="0" result="BackgroundImageFix"/>
<feBlend mode="normal" in="SourceGraphic" in2="BackgroundImageFix" result="shape"/>
<feColorMatrix in="SourceAlpha" type="matrix" values="0 0 0 0 0 0 0 0 0 0 0 0 0 0 0 0 0 0 127 0" result="hardAlpha"/>
<feOffset dx="0.5" dy="0.5"/>
<feComposite in2="hardAlpha" operator="arithmetic" k2="-1" k3="1"/>
<feColorMatrix type="matrix" values="0 0 0 0 1 0 0 0 0 0.91675 0 0 0 0 0.775 0 0 0 1 0"/>
<feBlend mode="normal" in2="shape" result="effect1_innerShadow_366_202"/>
</filter>
<filter id="filter1_i_366_202" x="0" y="0" width="74" height="87" filterUnits="userSpaceOnUse" color-interpolation-filters="sRGB">
<feFlood flood-opacity="0" result="BackgroundImageFix"/>
<feBlend mode="normal" in="SourceGraphic" in2="BackgroundImageFix" result="shape"/>
<feColorMatrix in="SourceAlpha" type="matrix" values="0 0 0 0 0 0 0 0 0 0 0 0 0 0 0 0 0 0 127 0" result="hardAlpha"/>
<feOffset dx="0.5" dy="0.5"/>
<feComposite in2="hardAlpha" operator="arithmetic" k2="-1" k3="1"/>
<feColorMatrix type="matrix" values="0 0 0 0 1 0 0 0 0 0.915625 0 0 0 0 0.775 0 0 0 0.8 0"/>
<feBlend mode="normal" in2="shape" result="effect1_innerShadow_366_202"/>
</filter>
<linearGradient id="paint0_linear_366_202" x1="70" y1="28" x2="4" y2="67.5" gradientUnits="userSpaceOnUse">
<stop stop-color="#F8D9A5"/>
<stop offset="1" stop-color="#FFCA72"/>
</linearGradient>
<linearGradient id="paint1_linear_366_202" x1="70" y1="48.5" x2="4" y2="48.5" gradientUnits="userSpaceOnUse">
<stop stop-color="#AF562E"/>
<stop offset="1" stop-color="#7D3A1D"/>
</linearGradient>
<clipPath id="clip0_366_202">
<rect width="30" height="30" fill="white" transform="translate(22.5 20.5)"/>
</clipPath>
</defs>
</svg>
